<?xml version="1.0" standalone="no"?>
<!DOCTYPE svg PUBLIC "-//W3C//DTD SVG 20010904//EN"
 "http://www.w3.org/TR/2001/REC-SVG-20010904/DTD/svg10.dtd">
<svg version="1.0" xmlns="http://www.w3.org/2000/svg"
 width="1200.000000pt" height="1200.000000pt" viewBox="0 0 1200.000000 1200.000000"
 preserveAspectRatio="xMidYMid meet">
<metadata>
Created by potrace 1.14, written by Peter Selinger 2001-2017
</metadata>
<g transform="translate(0.000000,1200.000000) scale(0.100000,-0.100000)"
fill="#000000" stroke="none">
<path d="M4259 7760 c-115 -20 -159 -32 -159 -43 0 -20 139 -720 144 -725 10
-9 108 11 113 23 2 8 -7 71 -21 141 -14 70 -26 133 -26 140 0 6 22 17 48 24
102 24 142 72 142 167 0 56 -24 162 -45 203 -32 61 -103 87 -196 70z m85 -132
c7 -13 19 -54 26 -91 12 -64 11 -70 -6 -87 -11 -10 -33 -21 -50 -24 l-31 -7
-21 107 c-24 119 -23 124 35 124 23 0 37 -7 47 -22z"/>
<path d="M5221 7447 c-56 -149 -108 -295 -114 -323 -9 -46 -8 -56 14 -100 30
-62 94 -98 174 -98 59 -1 95 18 130 71 20 29 240 592 233 597 -18 14 -102 36
-108 30 -5 -5 -54 -128 -110 -274 -56 -146 -108 -275 -116 -287 -27 -42 -94
-23 -94 27 0 16 48 153 106 305 58 152 104 278 102 280 -3 3 -106 45 -111 45
-1 0 -49 -123 -106 -273z"/>
<path d="M3665 7553 c-27 -14 -52 -27 -54 -29 -3 -2 333 -659 344 -672 6 -7
105 49 105 60 0 10 -339 669 -343 668 -1 -1 -24 -13 -52 -27z"/>
<path d="M5944 7288 c-33 -23 -57 -50 -77 -88 l-29 -55 6 -140 c6 -133 6 -142
-16 -185 -27 -52 -62 -70 -103 -52 -34 15 -33 55 2 100 l27 35 -44 40 -45 39
-23 -29 c-63 -75 -77 -153 -39 -217 28 -44 99 -96 136 -97 77 -3 111 11 164
70 62 69 69 96 65 268 -3 140 -1 153 18 179 30 41 48 50 81 38 36 -12 42 -53
14 -93 -12 -16 -21 -33 -20 -38 0 -4 19 -23 41 -41 l42 -33 18 23 c85 106 75
207 -26 276 -38 25 -59 32 -96 32 -37 0 -58 -7 -96 -32z"/>
<path d="M2893 6868 c-31 -22 -153 -193 -153 -213 1 -8 593 -403 620 -413 9
-3 70 81 70 95 0 6 -128 94 -253 174 -6 4 -1 19 12 38 34 47 62 41 186 -39 59
-38 113 -70 119 -70 6 0 26 23 44 52 27 40 31 52 20 59 -7 5 -17 9 -21 9 -5 0
-47 25 -93 55 -125 81 -141 88 -196 83 -44 -5 -48 -3 -48 16 0 48 -61 110
-157 160 -46 23 -112 21 -150 -6z m138 -133 c82 -52 95 -81 58 -128 l-20 -26
-85 56 c-79 53 -83 57 -71 77 7 12 17 27 21 34 12 20 53 14 97 -13z"/>
<path d="M6215 6640 c-176 -104 -319 -193 -318 -198 4 -21 156 -272 164 -272
12 0 89 48 89 56 0 3 -20 40 -45 83 -25 43 -45 82 -45 87 0 7 142 95 181 112
4 2 23 -27 43 -63 21 -36 42 -65 48 -65 16 0 88 43 88 53 0 5 -16 36 -35 68
-19 33 -35 63 -35 67 1 8 145 92 157 92 5 0 30 -38 57 -85 l49 -85 46 26 c25
15 48 28 50 30 5 4 -160 284 -168 283 -3 0 -150 -85 -326 -189z"/>
<path d="M2557 6213 c-9 -31 -13 -60 -9 -64 6 -6 684 -210 707 -213 12 -1 47
106 37 114 -4 4 -162 53 -352 109 -189 57 -349 105 -356 108 -6 2 -18 -20 -27
-54z"/>
<path d="M2890 5719 c-162 -26 -326 -54 -363 -60 l-68 -11 3 -81 3 -82 340
-56 c187 -32 357 -60 378 -63 l37 -6 0 59 0 59 -67 8 -68 9 -3 67 -3 66 53 7
c90 11 88 9 88 76 0 50 -3 59 -17 58 -10 0 -151 -23 -313 -50z m80 -153 c0
-25 -3 -47 -7 -49 -7 -3 -307 37 -323 43 -6 3 275 47 308 49 20 1 22 -4 22
-43z"/>
<path d="M4273 5714 c-4 -1 -21 -5 -36 -8 l-28 -7 3 -117 3 -117 62 -3 62 -3
3 -122 c2 -67 1 -201 -2 -297 l-5 -175 -60 -5 -60 -5 -3 -109 c-2 -75 1 -113
10 -123 10 -13 47 -15 228 -13 118 1 220 2 225 1 6 -1 -23 -11 -64 -22 -100
-27 -153 -56 -243 -133 -86 -75 -124 -139 -160 -275 -34 -132 -12 -299 59
-433 113 -216 376 -318 674 -262 127 23 299 120 299 167 0 19 -155 187 -172
187 -5 0 -28 -13 -51 -28 -100 -68 -201 -86 -298 -53 -136 45 -180 94 -209
229 -19 93 22 218 91 276 64 54 107 69 200 70 113 1 119 -4 119 -105 l0 -78
33 -6 c17 -3 79 -5 137 -3 l105 3 0 160 0 160 -63 47 c-75 57 -165 88 -279 95
-76 5 -82 7 -72 24 5 11 8 65 7 121 l-3 103 -62 3 -63 3 0 299 0 300 55 0 c44
0 57 4 63 18 11 26 8 210 -3 221 -8 7 -473 21 -502 15z"/>
<path d="M4922 5591 c3 -136 8 -145 68 -137 19 3 41 2 48 -3 9 -6 13 -72 14
-277 1 -148 -1 -279 -6 -291 -6 -20 -14 -23 -67 -23 l-59 0 0 -119 c0 -72 4
-122 10 -126 19 -12 553 -5 567 7 17 14 18 209 1 226 -7 7 -38 12 -70 12 l-58
0 0 50 c0 58 -21 52 185 55 126 2 169 12 270 62 107 53 165 140 173 262 14
207 -63 331 -240 390 -58 19 -97 21 -451 27 l-389 7 4 -122z m672 -162 c22 -6
53 -24 69 -40 25 -25 29 -35 24 -66 -7 -40 -29 -68 -69 -89 -30 -16 -214 -20
-237 -5 -8 5 -15 38 -18 93 -7 111 -1 118 110 118 45 0 100 -5 121 -11z"/>
<path d="M2876 5114 c-22 -8 -41 -16 -43 -17 -2 -2 8 -36 21 -75 l24 -71 -94
-31 c-53 -18 -97 -30 -98 -29 -2 2 -16 42 -31 89 -15 47 -29 86 -30 87 -2 3
-97 -28 -104 -33 -3 -2 86 -279 95 -296 4 -6 702 227 713 238 7 7 -29 114 -39
114 -5 0 -75 -23 -155 -51 -80 -28 -148 -49 -149 -48 -2 2 -13 34 -25 72 -13
37 -28 67 -34 66 -7 0 -30 -7 -51 -15z"/>
<path d="M6286 4587 c-137 -4 -250 -8 -252 -10 -1 -1 -3 -56 -5 -122 l-4 -120
65 0 65 0 -3 -80 c-2 -47 -8 -83 -15 -88 -7 -4 -39 -6 -71 -3 -32 4 -111 6
-175 6 l-116 0 2 82 2 83 59 3 60 3 -1 117 -2 117 -30 6 c-16 4 -139 7 -271 8
-184 1 -244 -2 -252 -12 -6 -7 -11 -59 -11 -119 l0 -107 32 -6 c18 -2 46 -6
62 -7 l30 -3 6 -170 c3 -93 4 -227 1 -297 l-5 -128 -57 0 c-44 0 -59 -4 -64
-16 -3 -9 -6 -65 -6 -125 0 -106 1 -109 23 -110 43 -3 541 2 547 6 3 2 4 57 2
124 l-3 120 -62 3 -62 3 1 72 c1 40 4 79 8 88 4 13 34 15 186 15 l180 0 0 -90
0 -90 -55 0 c-39 0 -57 -4 -61 -14 -3 -8 -6 -64 -7 -125 -2 -91 1 -111 13
-113 8 -2 137 -2 285 0 l270 4 -1 121 -2 122 -58 3 c-32 2 -62 8 -65 14 -9 14
-3 563 6 578 3 5 33 10 65 10 l59 0 -2 124 -2 124 -30 4 c-16 1 -142 0 -279
-5z"/>
<path d="M8200 4590 l-35 -5 0 -120 0 -120 62 -3 61 -3 1 -242 c1 -133 -2
-268 -5 -299 l-7 -58 -59 0 -59 0 3 -122 3 -123 271 -1 c149 -1 278 2 285 7
19 11 26 203 9 224 -8 10 -31 15 -66 15 l-53 0 -3 283 c-2 155 -1 290 1 299 2
13 16 18 60 20 l56 3 3 117 c3 115 2 118 -20 122 -33 7 -466 12 -508 6z"/>
<path d="M6982 4578 c-13 -13 -15 -165 -3 -208 6 -21 14 -26 51 -30 43 -5 45
-7 44 -35 -2 -30 -59 -161 -185 -422 l-69 -143 -49 0 c-27 0 -53 -6 -59 -13
-13 -16 -13 -195 0 -219 8 -16 31 -18 263 -18 139 0 260 3 269 6 13 5 16 24
16 104 0 103 -5 115 -49 122 -35 5 -47 29 -30 64 l14 29 183 0 c199 0 203 0
205 -56 2 -27 -3 -33 -28 -42 -16 -5 -33 -15 -37 -21 -4 -6 -8 -50 -8 -98 0
-76 2 -89 19 -98 12 -6 115 -10 265 -10 232 0 246 1 256 19 14 28 13 204 -2
219 -7 7 -33 12 -60 12 -45 0 -48 2 -73 44 -15 25 -55 118 -91 208 -35 90 -99
233 -142 318 -43 85 -89 181 -101 213 -13 31 -24 58 -25 58 0 1 -127 3 -282 5
-204 2 -284 0 -292 -8z m447 -403 c18 -46 31 -91 27 -100 -4 -11 -22 -15 -74
-15 -93 0 -99 9 -66 91 15 35 30 74 35 87 5 12 17 22 27 22 14 0 27 -21 51
-85z"/>
<path d="M8884 4582 c-6 -4 -14 -18 -17 -32 -8 -30 3 -183 14 -201 5 -9 26
-13 58 -11 45 2 51 0 56 -21 3 -12 4 -146 3 -297 l-3 -275 -60 -5 -60 -5 -6
-100 c-3 -55 -3 -110 2 -121 10 -28 28 -30 316 -26 207 2 232 4 238 20 3 9 3
65 -1 124 l-7 107 -50 3 -50 3 -3 153 c-3 128 -1 152 11 152 8 0 15 -4 15 -9
0 -5 20 -33 45 -64 25 -30 67 -84 93 -120 26 -36 98 -133 161 -216 l115 -151
65 -2 c117 -2 186 3 200 17 11 11 14 84 12 418 l-1 404 57 9 c49 8 58 13 64
34 11 38 10 183 -1 200 -13 21 -511 29 -527 8 -6 -7 -13 -66 -17 -130 l-7
-118 56 0 55 0 0 -97 c1 -54 5 -117 9 -140 13 -70 -3 -75 -56 -18 -25 28 -62
75 -81 105 -20 30 -64 88 -98 127 -35 40 -85 105 -113 145 -27 40 -63 88 -80
106 l-30 32 -183 0 c-101 0 -188 -4 -194 -8z"/>
</g>
</svg>
